<svg xmlns="http://www.w3.org/2000/svg" version="1.1" xmlns:xlink="http://www.w3.org/1999/xlink" xmlns:svgjs="http://svgjs.dev/svgjs" width="1000" height="1125" viewBox="0 0 1000 1125"><g transform="matrix(1,0,0,1,1.7053025658242404e-13,0)"><svg viewBox="0 0 320 360" data-background-color="#ffffff" preserveAspectRatio="xMidYMid meet" height="1125" width="1000" xmlns="http://www.w3.org/2000/svg" xmlns:xlink="http://www.w3.org/1999/xlink"><g id="tight-bounds" transform="matrix(1,0,0,1,0,0)"><svg viewBox="0 0 320 360" height="360" width="320"><g><svg></svg></g><g><svg viewBox="0 0 320 360" height="360" width="320"><g><path d="M20.961 227.22l3.726 4.658-1.863-6.056c-0.466-2.795-3.726 0.466-1.863 1.398M25.153 224.425c1.397 2.329 2.795 4.658 2.795 6.987 0 3.261 2.795 4.658 5.123 5.589-3.261-3.726-5.124-13.974-7.918-12.576M204.017 26.929c7.918 0 15.371-0.932 23.756 0.931 20.495 5.124 37.729 15.371 49.374 29.811l32.606 52.169c1.397 13.042 4.192 27.482 3.726 43.319 3.261 0 2.795-4.658 6.521-5.59-3.726 9.316-5.59 20.961-6.521 34.469-2.329-7.453 0-18.632 0.466-24.687-3.261 5.124-5.124 1.397-5.124-0.932 0.466-3.726-1.397-3.261-2.795-4.658-5.124-4.658-8.384-9.782-12.11-17.7 2.329-6.055 2.795-14.905-4.658-19.563-2.329-1.397-5.124-3.726-6.521-7.453-1.863-5.124-5.124-11.179-4.193-19.097 0.466-2.329-6.987 5.124-11.179 1.863-18.166-12.576-36.332-27.016-58.224-39.127-11.645 0-20.029-4.192-24.221-9.316-3.726-4.658-0.932-10.713 4.658-11.179 3.261 0 6.987-0.932 9.782 0.932 0.466-1.863 2.329-4.192 4.657-4.192M157.904 16.215l0.932 0.466c4.658 0.932 6.987 7.453 12.11 5.124 0 3.261 0.466 6.521-0.466 8.85-1.397 3.726-5.59 3.726-8.85 3.726-31.208-1.863-49.374 11.179-68.471 22.358-5.124 3.261-10.713 5.59-14.906 9.782-20.029 18.632-41.921 35.866-47.045 70.335l-4.192 38.195c-0.466 4.192-5.124 8.384-4.192 13.508l3.26 22.824c-3.261-3.261-5.124 0.932-4.192 2.795 0.466 1.397 2.329 6.055 5.124 1.863 3.726 6.987 7.453 20.495 12.576 26.55 15.837 18.632 36.332 35.4 53.101 52.169 4.192-0.932 7.453-0.932 8.384-3.727 1.397 2.795-1.397 5.59-3.726 6.056 7.453 4.658 15.837 8.85 27.016 9.781 14.44 0.932 27.948 3.261 40.524 6.522 6.521-1.863 13.042-2.795 20.029-3.261 2.329 0 3.726-3.726 6.521-4.658l0.466-4.658c2.795 4.192 2.329-1.397 0.466-4.192 3.261 2.795 4.192 5.124 5.589 6.987 0-1.397 3.726-6.521 3.727-0.466l0.931-6.055c1.397-0.932 1.863 5.124 3.261 0.931 1.397-4.192 4.192-0.932 6.987-2.329-0.932 1.863-0.466 5.59 2.794 3.261l3.727-3.261c2.329 5.59 6.055 3.261 7.918 2.329 20.495-13.042 40.99-28.413 60.553-43.784l-0.466 6.055 2.329-7.453c2.329 2.329 4.192 0.466 5.124-0.931 2.795-4.658 6.521-9.316 12.577-13.508-7.453 20.029-16.303 35.866-27.482 48.908l-4.658 5.59c0 3.261-0.932 7.453-4.658 7.918-1.863 0.466-5.59-0.932-8.384 1.863-1.397 1.863 3.261 5.59-0.466 2.795-3.261-2.329-6.521 0-10.248 0.932-2.795 0.932 1.863 3.726 2.795 5.589 0.932 1.863 1.863 3.726 1.398 6.056l-5.124-5.59c-6.055 3.261-9.782 9.316-14.906 13.974-2.329 1.863-1.397 5.124-1.397 7.918-3.261 0-6.987-0.932-8.85 0.932-1.397 1.863-0.932 4.658-0.932 7.453-4.658-0.466-5.124-7.453-9.315-6.056-4.192 0.932-8.85 1.397-12.577 3.727 2.795 5.59-4.658 2.329-3.726 3.26-6.987-4.192-13.042-7.453-20.495-4.658-15.837-5.124-35.4-2.795-49.84-0.931 0-2.329 0.466-4.658-0.466-5.124-0.932 2.329-3.726 1.397-3.26 1.397-8.85-6.055-17.7-9.782-27.016-14.905-8.384 0.932-16.303-3.261-18.632-5.59-6.521-6.055-13.974-2.795-20.029-4.192-13.042-3.261-17.7-16.769-19.098-26.084-0.932-4.658-4.658-6.521-6.055-6.056-6.055-19.563-15.371-37.263-22.824-55.429-1.863-4.658-1.397-9.316-1.397-14.44 2.329 0.932 4.658 0.466 4.192-2.794-2.329-15.371-7.918-27.016-13.974-38.195 3.261-15.837 3.726-34.469 11.179-48.443 6.521-12.576 18.632-19.098 27.016-29.811 2.795-3.726 2.795-8.85 5.59-12.11 9.316-9.316 18.632-19.098 28.879-27.482 4.658-3.726 10.247 0 17.234-1.397 2.329-8.384 11.645-15.837 20.495-13.508 3.726 0.932 11.179-8.85 13.508-9.782 3.726-1.397 1.863 3.726 1.863 6.987 8.85-6.987 20.961-10.713 32.14-14.906" fill="#ed2647" fill-rule="nonzero" stroke="none" stroke-width="1" stroke-linecap="butt" stroke-linejoin="miter" stroke-miterlimit="10" stroke-dasharray="" stroke-dashoffset="0" font-family="none" font-weight="none" font-size="none" text-anchor="none" style="mix-blend-mode: normal" data-fill-palette-color="tertiary"></path></g><g transform="matrix(1,0,0,1,64,153.97638591877026)"><svg viewBox="0 0 192 52.0472281624595" height="52.0472281624595" width="192"><g><svg viewBox="0 0 192 52.0472281624595" height="52.0472281624595" width="192"><g><svg viewBox="0 0 192 52.0472281624595" height="52.0472281624595" width="192"><g><svg viewBox="0 0 192 52.0472281624595" height="52.0472281624595" width="192"><g id="textblocktransform"><svg viewBox="0 0 192 52.0472281624595" height="52.0472281624595" width="192" id="textblock"><g><svg viewBox="0 0 192 32.20731920854492" height="32.20731920854492" width="192"><g transform="matrix(1,0,0,1,0,0)"><svg width="192" viewBox="1.75 -36.7 285.52 47.900000000000006" height="32.20731920854492" data-palette-color="#ed2647"><path d="M6.8-35.5L6.8-35.5 23.5-34.95 28.2-35.05Q28.35-34 28.35-32.85 28.35-31.7 27.95-31.2 27.55-30.7 26.5-30.7L26.5-30.7Q26.4-30.7 19.45-31.35L19.45-31.35Q19.25-29.1 17.95-23.65 16.65-18.2 15.45-12 14.25-5.8 14.2-0.85L14.2-0.85Q12.25 0.15 6.2 0.15L6.2 0.15 5.85 0.15Q5.85-2.45 8.7-15.35 11.55-28.25 11.55-31.05L11.55-31.05Q11.55-31.25 11.45-31.75L11.45-31.75 9.45-31.75Q5.35-31.75 3.15-30.5L3.15-30.5Q2-32 1.75-34.9L1.75-34.9Q3.45-35.5 6.8-35.5ZM41.35-20.7L41.35-20.7Q41.45-20.8 41.9-22L41.9-22Q44.25-22 48.2-20.6L48.2-20.6Q46.95-16.45 46.2-11.93 45.45-7.4 45.45-5.48 45.45-3.55 45.85-3.55L45.85-3.55Q46.15-3.55 48.05-4.5L48.05-4.5 48.65-4.8 49.55-3.05Q49.1-2.65 48.37-2.05 47.65-1.45 45.65-0.43 43.65 0.6 42.05 0.6L42.05 0.6Q38.95 0.6 38.45-2.2L38.45-2.2Q35.25 0.6 32.67 0.6 30.1 0.6 28.32-1.4 26.55-3.4 26.55-7.7L26.55-7.7Q26.55-14.4 29.3-18.28 32.05-22.15 35.95-22.15L35.95-22.15Q38.75-22.15 41.35-20.7ZM35.65-3.65L35.65-3.65Q36.85-3.65 38.35-4.6L38.35-4.6Q38.7-11.65 40.7-18.55L40.7-18.55Q39.2-19.2 38.15-19.2L38.15-19.2Q36.35-19.2 35.07-15.68 33.8-12.15 33.8-7.9 33.8-3.65 35.65-3.65ZM65.3-6.55L65.3-6.55Q65.3-3.4 62.52-1.4 59.75 0.6 56.2 0.6 52.65 0.6 50.57-0.9 48.5-2.4 48.5-3.55L48.5-3.55Q48.5-4.25 50.25-5.83 52-7.4 53.2-7.75L53.2-7.75Q55.7-5.9 57.3-1.9L57.3-1.9Q59.15-2.05 59.15-3.65L59.15-3.65Q59.15-5.95 55.1-10.18 51.05-14.4 51.05-16.9 51.05-19.4 53.3-20.78 55.55-22.15 58.72-22.15 61.9-22.15 63.5-21.03 65.09-19.9 65.09-17.98 65.09-16.05 62.05-12.65L62.05-12.65Q62.4-12.3 62.95-11.73 63.5-11.15 64.4-9.55 65.3-7.95 65.3-6.55ZM60.5-14.4Q62.6-16.2 62.6-17.95 62.6-19.7 60.2-19.7L60.2-19.7Q59.05-19.7 58.3-19.23 57.55-18.75 57.55-18.15L57.55-18.15Q57.55-17.05 59.75-15.05L59.75-15.05 60.5-14.4ZM73.24-33L73.24-33Q73.24-34.65 72.94-35.35L72.94-35.35Q76.84-36.7 80.29-36.7L80.29-36.7Q80.74-36.25 80.74-34.4L80.74-34.4Q80.74-30.25 77.99-18.5L77.99-18.5Q82.44-22.15 86.79-22.15L86.79-22.15Q88.74-22.15 90.09-20.95 91.44-19.75 91.44-17.45L91.44-17.45Q91.44-13.15 84.39-11.2L84.39-11.2Q86.04-6 87.29-4.15L87.29-4.15Q87.84-3.35 88.09-3.35L88.09-3.35Q88.64-3.35 90.39-4.2L90.39-4.2 90.94-4.45 91.74-2.75Q90.54-1.65 88.42-0.53 86.29 0.6 84.54 0.6L84.54 0.6Q80.64 0.6 79.09-6.5L79.09-6.5Q78.39-9.55 78.24-12.2L78.24-12.2Q81.44-12.95 83.02-14.03 84.59-15.1 84.59-16.78 84.59-18.45 82.89-18.45 81.19-18.45 77.19-15.05L77.19-15.05Q74.69-4.5 74.69-0.6L74.69-0.6Q71.94 0.2 67.54 0.2L67.54 0.2Q67.49-0.65 67.49-1.3L67.49-1.3Q67.49-3.45 70.37-16 73.24-28.55 73.24-33ZM141.01 0.6Q139.14 0.6 137.99-0.73 136.84-2.05 136.84-4.33 136.84-6.6 138.91-15.65 140.99-24.7 140.99-27.2 140.99-29.7 139.04-29.7L139.04-29.7Q136.34-29.7 133.09-27.3L133.09-27.3Q132.74-24.6 131.04-17.88 129.34-11.15 128.76-7.93 128.19-4.7 128.19-2.95 128.19-1.2 128.24-0.8L128.24-0.8Q126.29 0.2 121.29 0.2L121.29 0.2 120.34 0.2Q120.34-4 122.69-14.1L122.69-14.1Q125.09-24.4 125.09-27.05 125.09-29.7 123.24-29.7L123.24-29.7Q120.54-29.7 116.94-27.1L116.94-27.1Q116.39-24.35 114.89-18.15L114.89-18.15Q111.54-3.95 111.54-0.8L111.54-0.8Q109.59 0.2 104.64 0.2L104.64 0.2 103.69 0.2Q103.89-2.05 106.34-13.03 108.79-24 109.39-29.45L109.39-29.45Q109.39-30.25 108.86-31.38 108.34-32.5 107.79-33.2L107.79-33.2 107.29-33.9 107.44-34.65Q110.24-35.5 117.09-35.5L117.09-35.5Q117.74-34.3 117.74-32.45L117.74-32.45Q117.74-32.05 117.54-30.35L117.54-30.35Q123.29-35.5 127.84-35.5L127.84-35.5Q129.89-35.5 131.29-34.1 132.69-32.7 133.09-30.45L133.09-30.45Q139.04-35.5 143.19-35.5L143.19-35.5Q145.79-35.5 147.39-33.8 148.99-32.1 148.99-29.05 148.99-26 146.86-17.43 144.74-8.85 144.74-5.45L144.74-5.45Q144.74-4 145.24-4L145.24-4Q145.69-4 147.69-5L147.69-5 148.39-5.3 149.39-3.45Q147.24-1.6 145.06-0.5 142.89 0.6 141.01 0.6ZM112.84-19.25L112.89-19.5Q112.84-19.4 112.84-19.25L112.84-19.25ZM166.39-20.7L166.39-20.7Q166.49-20.8 166.94-22L166.94-22Q169.29-22 173.24-20.6L173.24-20.6Q171.99-16.45 171.24-11.93 170.49-7.4 170.49-5.48 170.49-3.55 170.89-3.55L170.89-3.55Q171.19-3.55 173.09-4.5L173.09-4.5 173.69-4.8 174.59-3.05Q174.14-2.65 173.41-2.05 172.69-1.45 170.69-0.43 168.69 0.6 167.09 0.6L167.09 0.6Q163.99 0.6 163.49-2.2L163.49-2.2Q160.29 0.6 157.71 0.6 155.14 0.6 153.36-1.4 151.59-3.4 151.59-7.7L151.59-7.7Q151.59-14.4 154.34-18.28 157.09-22.15 160.99-22.15L160.99-22.15Q163.79-22.15 166.39-20.7ZM160.69-3.65L160.69-3.65Q161.89-3.65 163.39-4.6L163.39-4.6Q163.74-11.65 165.74-18.55L165.74-18.55Q164.24-19.2 163.19-19.2L163.19-19.2Q161.39-19.2 160.11-15.68 158.84-12.15 158.84-7.9 158.84-3.65 160.69-3.65ZM176.83 0.15L176.83 0.15 175.88 0.15Q175.88-2.2 177.31-8.85 178.73-15.5 178.73-16.4L178.73-16.4Q178.73-18.05 177.33-19.9L177.33-19.9 176.88-20.5 176.93-21.15Q179.63-21.9 185.58-21.9L185.58-21.9Q186.23-21.05 186.28-18.8L186.28-18.8Q190.63-22.15 193.63-22.15L193.63-22.15Q195.43-22.15 196.51-20.9 197.58-19.65 197.58-17.78 197.58-15.9 196.43-11.3 195.28-6.7 195.28-5.13 195.28-3.55 195.68-3.55L195.68-3.55Q195.98-3.55 197.78-4.5L197.78-4.5 198.38-4.8 199.28-3.05Q198.83-2.65 198.08-2.05 197.33-1.45 195.31-0.43 193.28 0.6 191.68 0.6L191.68 0.6Q188.03 0.6 188.03-3.55L188.03-3.55Q188.03-5.3 189.16-10 190.28-14.7 190.28-16.05 190.28-17.4 189.43-17.4L189.43-17.4Q187.98-17.4 185.88-16.15L185.88-16.15Q185.73-15.3 184.88-11.65L184.88-11.65Q183.13-3.8 183.13-0.55L183.13-0.55Q181.38 0.15 176.83 0.15ZM215.78-20.7L215.78-20.7Q215.88-20.8 216.33-22L216.33-22Q218.68-22 222.63-20.6L222.63-20.6Q221.38-16.45 220.63-11.93 219.88-7.4 219.88-5.48 219.88-3.55 220.28-3.55L220.28-3.55Q220.58-3.55 222.48-4.5L222.48-4.5 223.08-4.8 223.98-3.05Q223.53-2.65 222.81-2.05 222.08-1.45 220.08-0.43 218.08 0.6 216.48 0.6L216.48 0.6Q213.38 0.6 212.88-2.2L212.88-2.2Q209.68 0.6 207.11 0.6 204.53 0.6 202.76-1.4 200.98-3.4 200.98-7.7L200.98-7.7Q200.98-14.4 203.73-18.28 206.48-22.15 210.38-22.15L210.38-22.15Q213.18-22.15 215.78-20.7ZM210.08-3.65L210.08-3.65Q211.28-3.65 212.78-4.6L212.78-4.6Q213.13-11.65 215.13-18.55L215.13-18.55Q213.63-19.2 212.58-19.2L212.58-19.2Q210.78-19.2 209.51-15.68 208.23-12.15 208.23-7.9 208.23-3.65 210.08-3.65ZM231.2 5.4Q229.53 6.4 229.53 7.35 229.53 8.3 230.6 8.3 231.68 8.3 233.03 7.28 234.38 6.25 235.28 3.95L235.28 3.95Q232.88 4.4 231.2 5.4ZM244.98-21.85L246.03-21.8Q246.23-21.6 246.23-20.93 246.23-20.25 246.13-19.48 246.03-18.7 245.78-16 245.53-13.3 245.28-11.3L245.28-11.3Q242.73 11.2 231.58 11.2L231.58 11.2Q229.78 11.2 228.3 10.25 226.83 9.3 226.83 7.8L226.83 7.8Q226.83 5.8 229.28 4.15 231.73 2.5 235.88 1.6L235.88 1.6Q235.88 1.55 236.18 0.2 236.48-1.15 236.58-2L236.58-2Q233.58 0.2 230.95 0.2 228.33 0.2 226.65-1.85 224.98-3.9 224.98-8.4L224.98-8.4Q224.98-14.3 227.63-18.23 230.28-22.15 234.63-22.15L234.63-22.15Q237.08-22.15 239.48-20.95L239.48-20.95Q242.03-21.85 244.98-21.85L244.98-21.85ZM236.88-19.2L236.88-19.2Q234.73-19.2 233.48-15.73 232.23-12.25 232.23-8.03 232.23-3.8 234.13-3.8L234.13-3.8Q235.38-3.8 237.08-4.75L237.08-4.75Q238.48-13.15 239.08-18.6L239.08-18.6Q237.68-19.2 236.88-19.2ZM247.83-8.65L247.83-8.65Q247.83-14.9 251.6-18.53 255.38-22.15 260.18-22.15L260.18-22.15Q263.13-22.15 265.03-20.7 266.93-19.25 266.93-16.82 266.93-14.4 265.7-12.75 264.48-11.1 262.73-10.2L262.73-10.2Q259.18-8.45 256.23-8L256.23-8 255.03-7.85Q255.38-3.15 258.88-3.15L258.88-3.15Q260.08-3.15 261.43-3.75 262.78-4.35 263.53-4.95L263.53-4.95 264.28-5.55 265.48-3.95Q265.08-3.4 263.88-2.5 262.68-1.6 261.63-1L261.63-1Q258.73 0.6 255.28 0.6 251.83 0.6 249.83-1.85 247.83-4.3 247.83-8.65ZM254.98-10.3Q257.53-10.75 259.03-12.45 260.53-14.15 260.53-16.85 260.53-19.55 258.93-19.55L258.93-19.55Q257.03-19.55 256-16.32 254.98-13.1 254.98-10.3L254.98-10.3ZM268.97 0.15L268.97 0.15 268.62 0.15Q268.52-0.25 268.52-1.68 268.52-3.1 269.87-9.35 271.22-15.6 271.22-16.5L271.22-16.5Q271.22-18.05 269.82-19.9L269.82-19.9 269.37-20.5 269.42-21.15Q272.12-21.9 278.07-21.9L278.07-21.9Q278.67-20.6 278.67-18.25L278.67-18.25Q279.22-19.15 280.97-20.65 282.72-22.15 284.57-22.15L284.57-22.15Q287.27-22.15 287.27-17.45L287.27-17.45Q287.02-17.15 286.6-16.68 286.17-16.2 284.9-15.35 283.62-14.5 282.42-14.3L282.42-14.3Q282.37-14.3 281.57-15.65 280.77-17 280.37-17L280.37-17Q279.12-16.55 278.17-15.5L278.17-15.5Q275.87-5.15 275.87-2.1L275.87-2.1Q275.87-1 275.92-0.55L275.92-0.55Q274.17 0.15 268.97 0.15Z" opacity="1" transform="matrix(1,0,0,1,0,0)" fill="#ed2647" class="undefined-text-0" data-fill-palette-color="primary" id="text-0"></path></svg></g></svg></g><g transform="matrix(1,0,0,1,0,36.90714005673262)"><svg viewBox="0 0 192 15.140088105726873" height="15.140088105726873" width="192"><g transform="matrix(1,0,0,1,0,0)"><svg width="192" viewBox="0.45 -35.1 453.95 35.800000000000004" height="15.140088105726873" data-palette-color="#ca3433"><path d="M22.15 0L8.35 0 8.35-1.05 9.8-1.4Q10.8-1.65 11.2-2.25 11.6-2.85 11.65-3.85L11.65-3.85 11.65-12.9 3.6-29.35Q3.1-30.35 2.65-30.85 2.2-31.35 1.35-31.65L1.35-31.65 0.45-32 0.45-33.05 13.7-33.05 13.7-32 12.8-31.7Q11.7-31.35 11.6-30.58 11.5-29.8 12.05-28.6L12.05-28.6 17.75-16 23.9-28.95Q24.35-29.85 24.3-30.7 24.25-31.55 23.25-31.8L23.25-31.8 22.55-32 22.55-33.05 29.1-33.05 29.1-32 28.1-31.7Q27.1-31.4 26.68-30.8 26.25-30.2 25.8-29.2L25.8-29.2 18.85-14.75 18.85-3.85Q18.85-1.8 20.65-1.4L20.65-1.4 22.15-1.05 22.15 0ZM43 0.7L43 0.7Q39.3 0.7 36.52-0.85 33.75-2.4 32.22-5.25 30.7-8.1 30.7-12.05L30.7-12.05Q30.7-16 32.32-18.85 33.95-21.7 36.72-23.23 39.5-24.75 43-24.75L43-24.75Q46.5-24.75 49.27-23.23 52.05-21.7 53.67-18.88 55.3-16.05 55.3-12.05L55.3-12.05Q55.3-8.1 53.77-5.23 52.25-2.35 49.5-0.83 46.75 0.7 43 0.7ZM43-0.7L43-0.7Q44.8-0.7 45.92-1.68 47.05-2.65 47.55-5.1 48.05-7.55 48.05-11.95L48.05-11.95Q48.05-16.4 47.55-18.88 47.05-21.35 45.92-22.33 44.8-23.3 43-23.3L43-23.3Q41.2-23.3 40.1-22.33 39-21.35 38.47-18.88 37.95-16.4 37.95-11.95L37.95-11.95Q37.95-7.55 38.47-5.1 39-2.65 40.1-1.68 41.2-0.7 43-0.7ZM66.55 0.7L66.55 0.7Q64.59 0.7 63-0.03 61.4-0.75 60.47-2.43 59.55-4.1 59.59-6.85L59.59-6.85 59.75-19.4Q59.75-20.5 59.4-21 59.05-21.5 58.15-21.7L58.15-21.7 57.55-21.9 57.55-22.8 66.09-24.45 66.65-23.9 66.4-16.85 66.4-5.5Q66.4-3.8 67.32-3.03 68.25-2.25 69.65-2.25L69.65-2.25Q71.09-2.25 72.27-2.68 73.45-3.1 74.7-3.95L74.7-3.95 74.84-19.35Q74.84-20.5 74.52-20.95 74.2-21.4 73.3-21.65L73.3-21.65 72.75-21.8 72.75-22.7 81.09-24.45 81.65-23.9 81.5-16.85 81.5-3.75Q81.5-2.7 81.77-2.08 82.05-1.45 83-1.15L83-1.15 83.65-0.95 83.65 0 75.2 0.5 74.75-2.65Q73.05-1.2 71.05-0.25 69.05 0.7 66.55 0.7ZM98.19 0L85.69 0 85.69-0.95 86.44-1.2Q87.44-1.45 87.82-2.05 88.19-2.65 88.19-3.65L88.19-3.65 88.19-18.3Q88.14-19.4 87.79-19.98 87.44-20.55 86.44-20.75L86.44-20.75 85.69-20.95 85.69-21.85 93.84-24.75 94.44-24.2 94.89-19.8 94.89-19.45Q95.64-20.85 96.79-22.05 97.94-23.25 99.29-24 100.64-24.75 101.99-24.75L101.99-24.75Q103.89-24.75 104.84-23.75 105.79-22.75 105.79-21.2L105.79-21.2Q105.79-19.5 104.84-18.63 103.89-17.75 102.54-17.75L102.54-17.75Q100.54-17.75 99.09-19.55L99.09-19.55 98.99-19.65Q98.49-20.25 97.87-20.33 97.24-20.4 96.64-19.7L96.64-19.7Q96.14-19.2 95.72-18.53 95.29-17.85 94.94-16.95L94.94-16.95 94.94-3.85Q94.94-2.9 95.34-2.27 95.74-1.65 96.69-1.4L96.69-1.4 98.19-0.95 98.19 0ZM131.74 0L118.54 0 118.54-1.05 119.54-1.3Q120.54-1.6 120.84-2.2 121.14-2.8 121.14-3.85L121.14-3.85Q121.19-6.7 121.19-9.63 121.19-12.55 121.19-15.5L121.19-15.5 121.19-17.55Q121.19-20.45 121.19-23.35 121.19-26.25 121.14-29.15L121.14-29.15Q121.14-30.2 120.81-30.78 120.49-31.35 119.49-31.7L119.49-31.7 118.54-32 118.54-33.05 130.59-33.05Q137.89-33.05 141.21-30.33 144.54-27.6 144.54-23.15L144.54-23.15Q144.54-20.35 143.16-17.98 141.79-15.6 138.64-14.2 135.49-12.8 130.14-12.8L130.14-12.8 128.34-12.8Q128.34-10.7 128.34-8.47 128.34-6.25 128.39-3.95L128.39-3.95Q128.39-1.9 130.24-1.45L130.24-1.45 131.74-1.05 131.74 0ZM128.34-17.55L128.34-14.25 130.44-14.25Q132.94-14.25 134.51-15.03 136.09-15.8 136.86-17.7 137.64-19.6 137.64-22.95L137.64-22.95Q137.64-26.3 136.81-28.18 135.99-30.05 134.34-30.83 132.69-31.6 130.24-31.6L130.24-31.6 128.39-31.6Q128.34-28.15 128.34-24.63 128.34-21.1 128.34-17.55L128.34-17.55ZM158.99 0L146.49 0 146.49-0.95 147.24-1.2Q148.24-1.45 148.61-2.05 148.99-2.65 148.99-3.65L148.99-3.65 148.99-18.3Q148.94-19.4 148.59-19.98 148.24-20.55 147.24-20.75L147.24-20.75 146.49-20.95 146.49-21.85 154.64-24.75 155.24-24.2 155.69-19.8 155.69-19.45Q156.44-20.85 157.59-22.05 158.74-23.25 160.09-24 161.44-24.75 162.79-24.75L162.79-24.75Q164.69-24.75 165.64-23.75 166.59-22.75 166.59-21.2L166.59-21.2Q166.59-19.5 165.64-18.63 164.69-17.75 163.34-17.75L163.34-17.75Q161.34-17.75 159.89-19.55L159.89-19.55 159.79-19.65Q159.29-20.25 158.66-20.33 158.04-20.4 157.44-19.7L157.44-19.7Q156.94-19.2 156.51-18.53 156.09-17.85 155.74-16.95L155.74-16.95 155.74-3.85Q155.74-2.9 156.14-2.27 156.54-1.65 157.49-1.4L157.49-1.4 158.99-0.95 158.99 0ZM180.73 0.7L180.73 0.7Q177.03 0.7 174.26-0.85 171.48-2.4 169.96-5.25 168.43-8.1 168.43-12.05L168.43-12.05Q168.43-16 170.06-18.85 171.68-21.7 174.46-23.23 177.23-24.75 180.73-24.75L180.73-24.75Q184.23-24.75 187.01-23.23 189.78-21.7 191.41-18.88 193.03-16.05 193.03-12.05L193.03-12.05Q193.03-8.1 191.51-5.23 189.98-2.35 187.23-0.83 184.48 0.7 180.73 0.7ZM180.73-0.7L180.73-0.7Q182.53-0.7 183.66-1.68 184.78-2.65 185.28-5.1 185.78-7.55 185.78-11.95L185.78-11.95Q185.78-16.4 185.28-18.88 184.78-21.35 183.66-22.33 182.53-23.3 180.73-23.3L180.73-23.3Q178.93-23.3 177.83-22.33 176.73-21.35 176.21-18.88 175.68-16.4 175.68-11.95L175.68-11.95Q175.68-7.55 176.21-5.1 176.73-2.65 177.83-1.68 178.93-0.7 180.73-0.7ZM205.83 0.7L205.83 0.7Q202.88 0.7 200.53-0.63 198.18-1.95 196.86-4.73 195.53-7.5 195.53-11.8L195.53-11.8Q195.53-16.1 197.03-18.98 198.53-21.85 201.03-23.3 203.53-24.75 206.53-24.75L206.53-24.75Q208.33-24.75 209.98-24.33 211.63-23.9 212.88-23.05L212.88-23.05 212.88-29.55Q212.88-30.6 212.56-31.08 212.23-31.55 211.23-31.8L211.23-31.8 210.23-32 210.23-32.95 218.93-35.1 219.58-34.65 219.38-27.6 219.38-3.55Q219.38-2.6 219.73-1.98 220.08-1.35 220.98-1.1L220.98-1.1 221.53-0.95 221.53 0 213.23 0.55 212.78-1.55Q211.43-0.5 209.68 0.1 207.93 0.7 205.83 0.7ZM208.58-1.6L208.58-1.6Q210.73-1.6 212.63-3L212.63-3 212.63-21.6Q210.78-22.75 208.63-22.75L208.63-22.75Q206.18-22.75 204.43-20.18 202.68-17.6 202.68-11.9L202.68-11.9Q202.68-6.2 204.33-3.9 205.98-1.6 208.58-1.6ZM232.73 0.7L232.73 0.7Q230.78 0.7 229.18-0.03 227.58-0.75 226.65-2.43 225.73-4.1 225.78-6.85L225.78-6.85 225.93-19.4Q225.93-20.5 225.58-21 225.23-21.5 224.33-21.7L224.33-21.7 223.73-21.9 223.73-22.8 232.28-24.45 232.83-23.9 232.58-16.85 232.58-5.5Q232.58-3.8 233.5-3.03 234.43-2.25 235.83-2.25L235.83-2.25Q237.28-2.25 238.45-2.68 239.63-3.1 240.88-3.95L240.88-3.95 241.03-19.35Q241.03-20.5 240.7-20.95 240.38-21.4 239.48-21.65L239.48-21.65 238.93-21.8 238.93-22.7 247.28-24.45 247.83-23.9 247.68-16.85 247.68-3.75Q247.68-2.7 247.95-2.08 248.23-1.45 249.18-1.15L249.18-1.15 249.83-0.95 249.83 0 241.38 0.5 240.93-2.65Q239.23-1.2 237.23-0.25 235.23 0.7 232.73 0.7ZM264.13 0.7L264.13 0.7Q260.73 0.7 257.98-0.78 255.23-2.25 253.65-5.08 252.08-7.9 252.08-11.95L252.08-11.95Q252.08-16 253.83-18.85 255.58-21.7 258.5-23.23 261.43-24.75 264.93-24.75L264.93-24.75Q267.78-24.75 269.78-23.8 271.78-22.85 272.83-21.38 273.88-19.9 273.88-18.25L273.88-18.25Q273.88-16.85 273.05-16.1 272.23-15.35 270.93-15.35L270.93-15.35Q269.53-15.35 268.65-16.35 267.78-17.35 267.63-18.9L267.63-18.9Q267.58-19.9 267.65-20.6 267.73-21.3 267.63-21.95L267.63-21.95Q267.43-22.8 266.95-23.1 266.48-23.4 265.63-23.4L265.63-23.4Q262.48-23.4 260.8-20.88 259.13-18.35 259.13-12.7L259.13-12.7Q259.13-7.85 260.98-5.25 262.83-2.65 266.73-2.65L266.73-2.65Q269.03-2.65 270.53-3.53 272.03-4.4 273.28-6.05L273.28-6.05 274.08-5.45Q272.83-2.45 270.25-0.88 267.68 0.7 264.13 0.7ZM285.82 0.7L285.82 0.7Q282.72 0.7 280.95-0.83 279.17-2.35 279.17-5.8L279.17-5.8Q279.17-7 279.2-8.08 279.22-9.15 279.22-10.6L279.22-10.6 279.22-22.45 275.67-22.45 275.67-23.55 277.02-23.75Q278.47-24 279.5-24.65 280.52-25.3 281.37-26.45L281.37-26.45 284.62-30.95 286.12-30.95 285.97-24 291.67-24 291.67-22.45 285.92-22.45 285.92-5.4Q285.92-3.6 286.7-2.7 287.47-1.8 288.62-1.8L288.62-1.8Q289.62-1.8 290.42-2.27 291.22-2.75 292.02-3.55L292.02-3.55 292.67-2.8Q291.72-1.15 290.02-0.23 288.32 0.7 285.82 0.7ZM300.12-27.5L300.12-27.5Q298.47-27.5 297.32-28.55 296.17-29.6 296.17-31.2L296.17-31.2Q296.17-32.85 297.32-33.88 298.47-34.9 300.12-34.9L300.12-34.9Q301.77-34.9 302.92-33.88 304.07-32.85 304.07-31.2L304.07-31.2Q304.07-29.6 302.92-28.55 301.77-27.5 300.12-27.5ZM305.82 0L294.37 0 294.37-0.95 295.12-1.15Q296.12-1.45 296.47-2.05 296.82-2.65 296.87-3.65L296.87-3.65 296.87-12.85Q296.87-14.4 296.87-15.73 296.87-17.05 296.82-18.45L296.82-18.45Q296.82-19.45 296.44-20.03 296.07-20.6 295.07-20.8L295.07-20.8 294.37-20.95 294.37-21.85 303.12-24.75 303.72-24.2 303.57-17.1 303.57-3.6Q303.57-2.6 303.94-2 304.32-1.4 305.27-1.1L305.27-1.1 305.82-0.95 305.82 0ZM321.97 0.15L319.07 0.15 310.27-21Q309.72-22.4 308.32-22.8L308.32-22.8 307.27-23.05 307.27-24 319.92-24 319.92-23.05 318.62-22.75Q317.02-22.35 317.67-20.7L317.67-20.7 322.92-6.75 327.82-20.6Q328.07-21.45 327.94-21.98 327.82-22.5 326.97-22.7L326.97-22.7 325.52-23.05 325.52-24 333.12-24 333.12-23.05 331.47-22.65Q330.02-22.3 329.52-20.85L329.52-20.85 321.97 0.15ZM346.91-24.75L346.91-24.75Q350.06-24.75 352.31-23.45 354.56-22.15 355.79-19.88 357.01-17.6 357.01-14.65L357.01-14.65Q357.01-14 356.96-13.43 356.91-12.85 356.76-12.35L356.76-12.35 341.71-12.35Q341.76-7.2 343.64-4.95 345.51-2.7 349.11-2.7L349.11-2.7Q351.61-2.7 353.16-3.53 354.71-4.35 356.01-5.85L356.01-5.85 356.81-5.1Q355.31-2.35 352.74-0.83 350.16 0.7 346.61 0.7L346.61 0.7Q343.06 0.7 340.36-0.8 337.66-2.3 336.14-5.13 334.61-7.95 334.61-11.9L334.61-11.9Q334.61-16 336.39-18.85 338.16-21.7 340.99-23.23 343.81-24.75 346.91-24.75ZM346.66-23.3L346.66-23.3Q345.21-23.3 344.14-22.48 343.06-21.65 342.44-19.58 341.81-17.5 341.71-13.75L341.71-13.75 350.66-13.75Q351.21-18.8 350.26-21.05 349.31-23.3 346.66-23.3ZM379.96 0.7L379.96 0.7Q376.86 0.7 375.08-0.83 373.31-2.35 373.31-5.8L373.31-5.8Q373.31-7 373.33-8.08 373.36-9.15 373.36-10.6L373.36-10.6 373.36-22.45 369.81-22.45 369.81-23.55 371.16-23.75Q372.61-24 373.63-24.65 374.66-25.3 375.51-26.45L375.51-26.45 378.76-30.95 380.26-30.95 380.11-24 385.81-24 385.81-22.45 380.06-22.45 380.06-5.4Q380.06-3.6 380.83-2.7 381.61-1.8 382.76-1.8L382.76-1.8Q383.76-1.8 384.56-2.27 385.36-2.75 386.16-3.55L386.16-3.55 386.81-2.8Q385.86-1.15 384.16-0.23 382.46 0.7 379.96 0.7ZM400.96 0.7L400.96 0.7Q397.26 0.7 394.48-0.85 391.71-2.4 390.18-5.25 388.66-8.1 388.66-12.05L388.66-12.05Q388.66-16 390.28-18.85 391.91-21.7 394.68-23.23 397.46-24.75 400.96-24.75L400.96-24.75Q404.46-24.75 407.23-23.23 410.01-21.7 411.63-18.88 413.26-16.05 413.26-12.05L413.26-12.05Q413.26-8.1 411.73-5.23 410.21-2.35 407.46-0.83 404.71 0.7 400.96 0.7ZM400.96-0.7L400.96-0.7Q402.76-0.7 403.88-1.68 405.01-2.65 405.51-5.1 406.01-7.55 406.01-11.95L406.01-11.95Q406.01-16.4 405.51-18.88 405.01-21.35 403.88-22.33 402.76-23.3 400.96-23.3L400.96-23.3Q399.16-23.3 398.06-22.33 396.96-21.35 396.43-18.88 395.91-16.4 395.91-11.95L395.91-11.95Q395.91-7.55 396.43-5.1 396.96-2.65 398.06-1.68 399.16-0.7 400.96-0.7ZM428.05 0.7L428.05 0.7Q424.35 0.7 421.58-0.85 418.8-2.4 417.28-5.25 415.75-8.1 415.75-12.05L415.75-12.05Q415.75-16 417.38-18.85 419-21.7 421.78-23.23 424.55-24.75 428.05-24.75L428.05-24.75Q431.55-24.75 434.33-23.23 437.1-21.7 438.73-18.88 440.35-16.05 440.35-12.05L440.35-12.05Q440.35-8.1 438.83-5.23 437.3-2.35 434.55-0.83 431.8 0.7 428.05 0.7ZM428.05-0.7L428.05-0.7Q429.85-0.7 430.98-1.68 432.1-2.65 432.6-5.1 433.1-7.55 433.1-11.95L433.1-11.95Q433.1-16.4 432.6-18.88 432.1-21.35 430.98-22.33 429.85-23.3 428.05-23.3L428.05-23.3Q426.25-23.3 425.15-22.33 424.05-21.35 423.53-18.88 423-16.4 423-11.95L423-11.95Q423-7.55 423.53-5.1 424.05-2.65 425.15-1.68 426.25-0.7 428.05-0.7ZM454.4 0L442.75 0 442.75-0.95 443.5-1.15Q445.15-1.7 445.15-3.65L445.15-3.65Q445.15-5.35 445.18-7.08 445.2-8.8 445.2-10.5L445.2-10.5 445.2-29.5Q445.2-30.55 444.85-31.08 444.5-31.6 443.5-31.85L443.5-31.85 442.75-32.05 442.75-33 451.5-35.1 452.15-34.65 451.95-27.6 451.95-3.65Q452-2.65 452.38-2.02 452.75-1.4 453.7-1.15L453.7-1.15 454.4-0.95 454.4 0Z" opacity="1" transform="matrix(1,0,0,1,0,0)" fill="#ca3433" class="undefined-text-1" data-fill-palette-color="secondary" id="text-1"></path></svg></g></svg></g></svg></g></svg></g><g></g></svg></g></svg></g></svg></g></svg></g><defs></defs></svg><rect width="320" height="360" fill="none" stroke="none" visibility="hidden"></rect></g></svg></g></svg>